<svg xmlns="http://www.w3.org/2000/svg" viewBox="0 0 300 300" width="300" height="300">
  <defs>
    <path id="splat" d="M50 20 C55 20,58 14,57 8 C56 4,53 2,50 2 C47 2,44 4,43 8 C42 14,45 20,50 20 Z M50 22 C66 22,74 30,74 42 C74 54,66 62,50 62 C34 62,26 54,26 42 C26 30,34 22,50 22 Z M68 28 C72 24,76 20,80 20 C84 20,86 26,82 30 C78 34,72 32,68 28 Z M76 40 C82 38,88 36,92 40 C96 44,92 50,86 48 C80 46,78 44,76 40 Z M70 54 C74 58,78 64,76 70 C74 76,68 76,66 70 C64 64,66 58,70 54 Z M56 62 C58 68,58 76,54 80 C50 84,46 80,46 74 C46 68,48 64,50 62 Z M34 58 C30 62,26 68,22 68 C16 68,16 62,20 58 C24 54,30 54,34 58 Z M28 40 C22 42,16 42,12 38 C8 34,10 28,16 28 C22 28,26 34,28 40 Z M34 26 C30 22,26 16,28 12 C30 6,36 6,38 12 C40 18,38 24,34 26 Z"/>
    <ellipse id="drip" rx="4" ry="6"/>
  </defs>

  <use href="#splat" fill="#2E6E2E" opacity="0.85" transform="translate(-20,-10) scale(2.5) rotate(-15 50 42)"/>
  <use href="#splat" fill="#A8D5A8" opacity="0.8" transform="translate(100,-20) scale(2.2) rotate(40 50 42)"/>
  <use href="#splat" fill="#2E6E2E" opacity="0.7" transform="translate(50,120) scale(2.4) rotate(170 50 42)"/>
  <use href="#splat" fill="#A8D5A8" opacity="0.75" transform="translate(160,60) scale(1.8) rotate(90 50 42)"/>
  <use href="#splat" fill="#2E6E2E" opacity="0.8" transform="translate(-10,180) scale(1.6) rotate(-50 50 42)"/>
  <use href="#splat" fill="#A8D5A8" opacity="0.7" transform="translate(180,180) scale(1.7) rotate(120 50 42)"/>
  <use href="#splat" fill="#2E6E2E" opacity="0.75" transform="translate(120,10) scale(1.2) rotate(200 50 42)"/>
  <use href="#splat" fill="#A8D5A8" opacity="0.8" transform="translate(30,100) scale(1.1) rotate(-80 50 42)"/>
  <use href="#splat" fill="#2E6E2E" opacity="0.7" transform="translate(200,120) scale(1.0) rotate(260 50 42)"/>
  <use href="#splat" fill="#A8D5A8" opacity="0.75" transform="translate(100,220) scale(1.3) rotate(30 50 42)"/>
  <use href="#splat" fill="#2E6E2E" opacity="0.8" transform="translate(240,20) scale(0.7) rotate(55 50 42)"/>
  <use href="#splat" fill="#A8D5A8" opacity="0.7" transform="translate(10,250) scale(0.6) rotate(-120 50 42)"/>
  <use href="#splat" fill="#2E6E2E" opacity="0.75" transform="translate(250,250) scale(0.65) rotate(140 50 42)"/>

  <use href="#drip" fill="#A8D5A8" opacity="0.9" transform="translate(45,80) rotate(15)"/>
  <use href="#drip" fill="#2E6E2E" opacity="0.85" transform="translate(260,100) rotate(-25)"/>
  <use href="#drip" fill="#A8D5A8" opacity="0.8" transform="translate(170,270) rotate(40)"/>
  <use href="#drip" fill="#2E6E2E" opacity="0.9" transform="translate(90,40) rotate(-10)"/>
  <use href="#drip" fill="#A8D5A8" opacity="0.85" transform="translate(280,200) rotate(55)"/>
  <use href="#drip" fill="#2E6E2E" opacity="0.8" transform="translate(30,170) rotate(70)"/>
  <use href="#drip" fill="#A8D5A8" opacity="0.9" transform="translate(200,50) rotate(-40)"/>
</svg>
